<svg width="174" height="198" viewBox="0 0 174 198" fill="none" xmlns="http://www.w3.org/2000/svg">
<g clip-path="url(#clip0)">
<path d="M74.3 154.2C75.7 155.4 77.3 156.5 79.1 157.1L77.7 155.9L74.3 154.2Z" fill="white"/>
<path d="M78.2 136.1L75.5 130.8L72.1 132.4C72 132.6 71.8 132.8 71.7 133L69.5 142.1L70.9 144.2L76.1 141.7L78.2 136.1Z" fill="white"/>
<path d="M76.1 142.7L71.4 145L71.3 150.6C71.6 151.1 72 151.6 72.3 152.1L78.6 155.4L81.8 154.6L81.2 147.2L76.1 142.7Z" fill="white"/>
<path d="M85.3 135.5L90.6 130.3L88.5 126.9L79.9 127L76.3 130.3L78.8 135.3L85.3 135.5Z" fill="white"/>
<path d="M68.8 140.7L69.9 136.2C69.4 137.6 69 139.1 68.8 140.7Z" fill="white"/>
<path d="M85.8 120.5V111.7H25.9C38.6 138.4 58.6 163 85.8 185.1V163.7C97.6 163.5 107 153.9 107 142.1C107 130.3 97.6 120.8 85.8 120.5ZM98.7 155.1C95.3 158.4 90.6 160.5 85.4 160.5C80.2 160.5 75.5 158.4 72.1 155.1C68.7 151.8 66.6 147.2 66.6 142.1C66.6 137 68.7 132.4 72.1 129.1C75.5 125.8 80.2 123.7 85.4 123.7C90.6 123.7 95.3 125.8 98.7 129.1C102.1 132.4 104.2 137 104.2 142.1C104.2 147.2 102.1 151.8 98.7 155.1Z" fill="white"/>
<path d="M91.3 130.9L86.3 135.9L88.2 142.3L96.2 145L99.5 141L96.8 133L91.3 130.9Z" fill="white"/>
<path d="M97.7 131.3L97.6 132.2L100.7 141.5L102 143.2C102 142.8 102 142.5 102 142.1C102 138 100.4 134.2 97.7 131.3Z" fill="white"/>
<path d="M88.5 157L87.7 158.1C91.3 157.6 94.6 155.9 97.1 153.5C97.9 152.7 98.6 151.8 99.3 150.9L96.2 151.7L88.5 157Z" fill="white"/>
<path d="M95.6 151L95.7 145.9L87.7 143.2L82.2 147.1L82.8 154.6L88.2 156.1L95.6 151Z" fill="white"/>
<path d="M121.4 63.2H121.1L120.5 71.4H121.9L121.4 63.2Z" fill="white"/>
<path d="M136.6 91.9C136.6 91.1 136.1 90.5 135.1 90.5H132.7V93.4H135.1C136.1 93.3 136.6 92.7 136.6 91.9Z" fill="white"/>
<path d="M90.7 87.2C90.7 86.3 90 85.7 89 85.7H86.8V88.8H89C90.1 88.8 90.7 88.2 90.7 87.2Z" fill="white"/>
<path d="M76 74.6V61.3C76 61.1 75.9 60.9 75.8 60.8C75.7 60.7 75.5 60.6 75.3 60.6H74.3V75.4H75.3C75.5 75.4 75.7 75.3 75.8 75.2C75.9 74.9 76 74.8 76 74.6Z" fill="white"/>
<path d="M136.5 87.1C136.5 86.3 136 85.7 135 85.7H132.8V88.4H135C135.9 88.4 136.5 87.9 136.5 87.1Z" fill="white"/>
<path d="M172.8 22.8C172.7 22.8 172.7 22.7 172.7 22.7C168.7 22.5 155 22.4 151 22.3C147 19 121.7 0 87 0C86.9 0 86.8 0 86.7 0C86.6 0 86.5 0 86.4 0C51.8 0 26.5 19 22.4 22.3C18.4 22.5 4.7 22.5 0.7 22.7V22.8C-0.5 38.6 -0.6 60.3 5.9 85.2C16.9 127 43.3 164.4 84.4 196.4L87 198L89.1 196.4C130.1 164.4 156.6 126.9 167.6 85.2C174.2 60.4 174.1 38.6 172.8 22.8ZM134.8 17C138.1 18.8 140.9 20.5 143.1 21.9C140.3 21.8 137.5 21.7 134.8 21.6V17ZM25.9 37.6C25.9 37.6 35.9 29.3 42 25.8C57.9 25.2 73.2 24.9 86.4 24.9C86.5 24.9 86.6 24.9 86.7 24.9C86.8 24.9 86.9 24.9 87 24.9C100.3 24.9 115.5 25.3 131.4 25.8C137.5 29.4 147.5 37.6 147.5 37.6H25.9ZM148.1 57.6C148.6 57.8 149 58.1 149.3 58.4C149.6 58.7 149.9 59.1 150.1 59.6C150.3 60.1 150.4 60.6 150.4 61.1V74.7C150.4 75.2 150.3 75.7 150.1 76.2C149.9 76.7 149.6 77.1 149.3 77.4C149 77.7 148.5 78 148.1 78.2C147.6 78.4 147.1 78.5 146.6 78.5H142C141.7 78.5 141.6 78.4 141.6 78.1V57.7C141.6 57.4 141.7 57.3 142 57.3H146.6C147.2 57.3 147.7 57.4 148.1 57.6ZM130.4 83.7H135.1C137.4 83.7 138.7 85 138.7 87C138.7 88.3 137.8 89.1 137.3 89.4C138 89.7 138.9 90.5 138.9 92C138.9 94.2 137.4 95.4 135.3 95.4H130.4V83.7ZM129 78.5C128.7 78.5 128.6 78.4 128.6 78.1V57.7C128.6 57.4 128.7 57.3 129 57.3H131C131.1 57.3 131.2 57.3 131.3 57.4C131.4 57.5 131.5 57.6 131.5 57.7L134.7 67.4V57.7C134.7 57.4 134.8 57.3 135.1 57.3H137.8C138.1 57.3 138.2 57.4 138.2 57.7V78.1C138.2 78.4 138.1 78.5 137.8 78.5H136C135.9 78.5 135.8 78.5 135.7 78.4C135.6 78.3 135.5 78.2 135.5 78.1L132.3 68V78C132.3 78.3 132.2 78.4 131.9 78.4H129V78.5ZM102.4 92.8C102.7 93.2 103.2 93.4 103.8 93.4C104.6 93.4 105 93.1 105.5 92.6L107 94.1C106.2 94.9 105.2 95.5 103.7 95.5C102.4 95.5 101.4 95 100.5 94.2C99.3 93 99.4 91.5 99.4 89.5C99.4 87.5 99.4 86 100.5 84.8C101.3 84 102.4 83.5 103.7 83.5C105.2 83.5 106.1 84 107 84.9L105.5 86.4C105 85.9 104.6 85.6 103.8 85.6C103.2 85.6 102.7 85.8 102.4 86.2C102 86.7 101.8 87.3 101.8 89.5C101.8 91.8 101.9 92.3 102.4 92.8ZM98.6 75.3C98.7 75.4 98.9 75.5 99.1 75.5H99.3C99.5 75.5 99.7 75.4 99.8 75.3C99.9 75.2 100 75 100 74.8V70.8C100 70.5 99.9 70.3 99.9 70.1C99.8 69.9 99.7 69.7 99.5 69.6L95.6 66.6C95.3 66.3 95.1 66 94.9 65.7C94.8 65.4 94.7 65 94.7 64.6V61C94.7 60.5 94.8 60 95 59.5C95.2 59 95.5 58.6 95.8 58.3C96.1 58 96.6 57.7 97 57.5C97.5 57.3 98 57.2 98.5 57.2H99.7C100.2 57.2 100.7 57.3 101.2 57.5C101.7 57.7 102.1 58 102.4 58.3C102.7 58.7 103 59.1 103.2 59.5C103.4 60 103.5 60.5 103.5 61V62.2C103.5 62.5 103.4 62.7 103.1 62.7L100.3 63.4C100 63.5 99.9 63.4 99.9 63.1V61.1C99.9 60.9 99.8 60.7 99.7 60.6C99.6 60.5 99.4 60.4 99.2 60.4H99C98.8 60.4 98.6 60.5 98.5 60.6C98.4 60.7 98.3 60.9 98.3 61.1V63.9C98.3 64.1 98.4 64.3 98.4 64.5C98.5 64.7 98.6 64.8 98.7 65L102.7 68C103 68.3 103.2 68.6 103.3 68.9C103.4 69.2 103.5 69.5 103.5 69.9V75.1C103.5 75.6 103.4 76.1 103.2 76.6C103 77.1 102.7 77.5 102.4 77.8C102.1 78.1 101.7 78.4 101.2 78.6C100.7 78.8 100.2 78.9 99.7 78.9H98.5C98 78.9 97.5 78.8 97 78.6C96.5 78.4 96.1 78.1 95.8 77.8C95.5 77.4 95.2 77 95 76.6C94.8 76.1 94.7 75.6 94.7 75.1V72C94.7 71.7 94.8 71.5 95.1 71.5L97.9 70.8C98.2 70.7 98.3 70.8 98.3 71.1V74.8C98.4 75 98.5 75.2 98.6 75.3ZM106.7 78.1V57.7C106.7 57.4 106.8 57.3 107.1 57.3H109.8C110.1 57.3 110.2 57.4 110.2 57.7V75H114C114.3 75 114.4 75.1 114.4 75.4V78.1C114.4 78.4 114.3 78.5 114 78.5H109.9H109.8H107.1C106.9 78.5 106.7 78.4 106.7 78.1ZM109.5 83.7H111.8V93.4H117.1V95.4H109.5V83.7ZM116.8 78.5C116.5 78.5 116.4 78.4 116.4 78.1L118.7 57.7C118.7 57.4 118.9 57.3 119.2 57.3H123.2C123.5 57.3 123.6 57.4 123.7 57.7L126 78.1C126 78.4 125.9 78.5 125.6 78.5H122.8C122.5 78.5 122.4 78.4 122.3 78.1L122.1 74.8H120.2L120 78.1C120 78.4 119.8 78.5 119.5 78.5H116.8ZM118.9 83.7H121.2V91.3C121.2 92.7 122 93.5 123.2 93.5C124.4 93.5 125.2 92.7 125.2 91.3V83.7H127.5V91.4C127.5 93.9 125.6 95.5 123.2 95.5C120.8 95.5 118.9 93.9 118.9 91.4V83.7ZM89.2 83.7C91.6 83.7 93 85.3 93 87.3C93 89 92 90 90.9 90.4L93.5 95.5H90.8L88.5 90.8H86.8V95.5H84.5V83.7H89.2ZM88.4 78.1V57.7C88.4 57.4 88.5 57.3 88.8 57.3H91.5C91.8 57.3 91.9 57.4 91.9 57.7V78.1C91.9 78.4 91.8 78.5 91.5 78.5H88.8C88.6 78.5 88.4 78.4 88.4 78.1ZM81.2 88.5V90.5H76.6V93.4H82V95.4H74.3V83.7H82V85.7H76.6V88.5H81.2ZM67.2 92.8C67.5 93.2 68 93.4 68.7 93.4C69.5 93.4 69.9 93.1 70.4 92.6L71.9 94.1C71.1 94.9 70.1 95.5 68.6 95.5C67.3 95.5 66.3 95 65.4 94.2C64.2 93 64.2 91.5 64.2 89.5C64.2 87.5 64.2 86 65.4 84.8C66.2 84 67.3 83.5 68.6 83.5C70.1 83.5 71 84 71.9 84.9L70.4 86.4C69.9 85.9 69.5 85.6 68.7 85.6C68.1 85.6 67.6 85.8 67.2 86.2C66.8 86.7 66.6 87.3 66.6 89.5C66.6 91.8 66.8 92.3 67.2 92.8ZM58.1 92.8C58.4 93.2 58.9 93.4 59.6 93.4C60.4 93.4 60.8 93.1 61.3 92.6L62.8 94.1C62 94.9 61 95.5 59.5 95.5C58.2 95.5 57.2 95 56.3 94.2C55.1 93 55.2 91.5 55.2 89.5C55.2 87.5 55.2 86 56.3 84.8C57.1 84 58.2 83.5 59.5 83.5C61 83.5 61.9 84 62.8 84.9L61.3 86.4C60.8 85.9 60.4 85.6 59.6 85.6C59 85.6 58.5 85.8 58.1 86.2C57.7 86.7 57.5 87.3 57.5 89.5C57.6 91.8 57.7 92.3 58.1 92.8ZM61.3 68.1V78.1C61.3 78.4 61.2 78.5 60.9 78.5H58.2C57.9 78.5 57.8 78.4 57.8 78.1V57.7C57.8 57.4 57.9 57.3 58.2 57.3H60.2C60.3 57.3 60.4 57.3 60.5 57.4C60.6 57.5 60.7 57.6 60.7 57.7L63.9 67.4V57.7C63.9 57.4 64 57.3 64.3 57.3H67C67.3 57.3 67.4 57.4 67.4 57.7V78.1C67.4 78.4 67.3 78.5 67 78.5H65.1C65 78.5 64.9 78.5 64.8 78.4C64.7 78.3 64.6 78.2 64.6 78.1L61.3 68.1ZM71.2 78.5C70.9 78.5 70.8 78.4 70.8 78.1V57.7C70.8 57.4 70.9 57.3 71.2 57.3H75.8C76.3 57.3 76.8 57.4 77.3 57.6C77.8 57.8 78.2 58.1 78.5 58.4C78.8 58.7 79.1 59.1 79.3 59.6C79.5 60.1 79.6 60.6 79.6 61.1V74.7C79.6 75.2 79.5 75.7 79.3 76.2C79.1 76.7 78.8 77.1 78.5 77.4C78.2 77.7 77.7 78 77.3 78.2C76.8 78.4 76.3 78.5 75.8 78.5H71.2ZM52 78.5C51.7 78.5 51.6 78.4 51.5 78.1L51.3 74.8H49.4L49.2 78.1C49.2 78.4 49 78.5 48.7 78.5H45.9C45.6 78.5 45.5 78.4 45.5 78.1L47.8 57.7C47.8 57.4 48 57.3 48.3 57.3H52.3C52.6 57.3 52.7 57.4 52.8 57.7L55.1 78.1C55.1 78.4 55 78.5 54.7 78.5H52ZM53 89.5C53 91.5 53 93 51.8 94.2C51 95 50 95.5 48.7 95.5C47.4 95.5 46.3 95 45.5 94.2C44.3 93 44.3 91.5 44.3 89.5C44.3 87.5 44.3 86 45.5 84.8C46.3 84 47.3 83.5 48.7 83.5C50 83.5 51 84 51.9 84.8C53 86 53 87.5 53 89.5ZM39.6 91C39.4 90.8 39.1 90.7 38.6 90.6L37.2 90.4C36.2 90.3 35.5 89.9 34.9 89.4C34.3 88.8 34.1 88.1 34.1 87.1C34.1 85 35.7 83.5 38.2 83.5C39.8 83.5 41 83.9 42 84.9L40.5 86.3C39.8 85.6 38.9 85.5 38.1 85.5C36.9 85.5 36.3 86.2 36.3 87C36.3 87.3 36.4 87.6 36.6 87.8C36.8 88 37.2 88.2 37.7 88.3L39.1 88.5C40.2 88.6 40.8 88.9 41.3 89.4C41.9 90 42.2 90.8 42.2 91.9C42.2 94.2 40.3 95.5 37.8 95.5C36 95.5 34.7 95.1 33.5 93.9L35 92.4C35.7 93.1 36.8 93.4 37.8 93.4C39.1 93.4 39.9 92.9 39.9 91.9C40 91.6 39.9 91.2 39.6 91ZM40.6 78.5C40.5 78.5 40.4 78.5 40.3 78.4C40.2 78.3 40.1 78.2 40.1 78.1L37.9 70.7V78.6V78.3C37.9 78.5 37.7 78.6 37.5 78.6H34.8C34.5 78.6 34.4 78.5 34.4 78.2V57.7C34.4 57.4 34.5 57.3 34.8 57.3H39.4C39.9 57.3 40.4 57.4 40.9 57.6C41.4 57.8 41.8 58.1 42.1 58.4C42.4 58.7 42.7 59.1 42.9 59.6C43.1 60.1 43.2 60.6 43.2 61.1V66C43.2 66.7 43 67.4 42.6 68C42.2 68.6 41.7 69.1 41.1 69.4L43.8 78.1C43.9 78.4 43.8 78.5 43.5 78.5H40.6ZM27.5 60.5C27.4 60.4 27.2 60.3 27 60.3H26.8C26.6 60.3 26.4 60.4 26.3 60.5C26 60.7 26 60.8 26 61V74.7C26 74.9 26.1 75.1 26.2 75.2C26.3 75.3 26.5 75.4 26.7 75.4H26.9C27.1 75.4 27.3 75.3 27.4 75.2C27.5 75.1 27.6 74.9 27.6 74.7V69.3H26.7V65.8H30.7C31 65.8 31.1 65.9 31.1 66.2V74.8C31.1 75.3 31 75.8 30.8 76.3C30.6 76.8 30.3 77.2 30 77.5C29.7 77.8 29.2 78.1 28.8 78.3C28.3 78.5 27.8 78.6 27.3 78.6H26.1C25.6 78.6 25.1 78.5 24.6 78.3C24.1 78.1 23.7 77.8 23.4 77.5C23.1 77.1 22.8 76.7 22.6 76.3C22.4 75.8 22.3 75.3 22.3 74.8V60.8C22.3 60.3 22.4 59.8 22.6 59.3C22.8 58.8 23.1 58.4 23.4 58.1C23.7 57.8 24.1 57.5 24.6 57.3C25.1 57.1 25.6 57 26.1 57H27.3C27.8 57 28.3 57.1 28.8 57.3C29.3 57.5 29.7 57.8 30 58.1C30.3 58.5 30.6 58.9 30.8 59.3C31 59.8 31.1 60.3 31.1 60.8V61.8C31.1 62.1 31 62.3 30.7 62.3L27.9 63.3C27.6 63.4 27.5 63.3 27.5 63V61C27.7 60.8 27.6 60.7 27.5 60.5ZM127.1 13.2C128.8 14 130.5 14.7 132.1 15.5V21.1C130.5 20.2 128.8 19.3 127.1 18.5V13.2ZM119.3 10.1C121 10.7 122.7 11.3 124.3 12V17.3C122.7 16.6 121 15.9 119.3 15.3V10.1ZM111.5 7.7C113.2 8.2 114.8 8.6 116.4 9.2V14.3C114.8 13.8 113.1 13.2 111.5 12.8V7.7ZM103.7 5.9C105.4 6.2 107 6.6 108.6 6.9V11.9C107 11.5 105.3 11.2 103.7 10.9V5.9ZM95.9 4.8C97.6 5 99.2 5.2 100.8 5.4V10.5C99.2 10.3 97.5 10.1 95.9 9.9V4.8ZM88.2 4.4C89.9 4.4 91.5 4.5 93.2 4.6V9.7C91.6 9.6 89.9 9.5 88.2 9.5V4.4ZM86.8 13.8C86.9 13.8 87 13.8 87.1 13.8C100.6 13.8 112.4 16.7 122.5 21.2C109.9 20.8 97.8 20.6 87.1 20.6C87 20.6 86.9 20.6 86.8 20.6C86.7 20.6 86.6 20.6 86.5 20.6C75.8 20.6 63.7 20.8 51.1 21.2C61.2 16.7 73 13.8 86.5 13.8C86.6 13.8 86.7 13.8 86.8 13.8ZM80.4 4.6C82 4.5 83.7 4.4 85.4 4.4V9.5C83.7 9.5 82.1 9.6 80.4 9.7V4.6ZM72.6 5.4C74.2 5.1 75.9 5 77.6 4.8V9.9C75.9 10.1 74.3 10.3 72.6 10.5V5.4ZM64.8 6.9C66.4 6.5 68.1 6.2 69.7 5.9V10.9C68 11.2 66.4 11.6 64.8 11.9V6.9ZM57.1 9.1C58.7 8.6 60.4 8.1 62.1 7.6V12.6C60.4 13.1 58.8 13.6 57.1 14.1V9.1ZM49.3 12C50.9 11.4 52.5 10.7 54.2 10.1V15.2C52.5 15.8 50.9 16.5 49.3 17.2V12ZM41.5 15.5C43.1 14.7 44.7 13.9 46.5 13.2V18.6C44.8 19.4 43.1 20.3 41.5 21.2V15.5ZM38.7 17V21.6C35.9 21.7 33.2 21.8 30.4 21.9C32.5 20.5 35.4 18.8 38.7 17ZM161.4 83.6C150.9 123.4 125.8 159.2 86.8 190.1C47.8 159.2 22.7 123.4 12.2 83.6C6.3 61.5 5.9 41.9 6.8 27L17.4 26.9C22.6 26.7 27.7 26.4 32.8 26.2H33C33.1 26.2 33.3 26.2 33.4 26.2C32.2 27.1 31 27.9 29.8 28.8C26.4 31.7 22.1 35.5 18.3 38.9C18 39.2 17.7 39.5 17.4 39.8V39.7C17.2 39.9 17 40.1 16.7 40.3C13.6 43.1 11 45.4 9.8 46.5C9.8 46.8 9.8 47 9.8 47.2C9.8 47.4 9.8 47.7 9.8 47.9C9.8 49 9.9 50.1 10 51.1C10 51.6 10.1 52.1 10.1 52.6C10.1 52.7 10.1 52.8 10.1 52.9C10.8 62.1 12.3 72.1 15.1 82.7C17.5 91.6 20.6 100.4 24.4 108.9H148.7C152.6 100.4 155.7 91.6 158 82.7C160.8 72.1 162.3 62.1 163 52.9C163 52.8 163 52.7 163 52.6C163 52.1 163.1 51.6 163.1 51.1C163.2 50 163.2 48.9 163.3 47.8C163.3 47.6 163.3 47.3 163.3 47.1C163.3 46.8 163.3 46.6 163.3 46.4C162.1 45.3 159.5 43 156.4 40.2C156.2 40 156 39.8 155.7 39.6V39.7C155.4 39.4 155.1 39.1 154.7 38.8C150.9 35.4 146.6 31.6 143.2 28.7C142 27.8 140.8 26.9 139.6 26.1C139.7 26.1 139.9 26.1 140 26.1H140.2C145.3 26.3 150.5 26.5 155.6 26.8L166.2 26.9C167.6 41.9 167.2 61.5 161.4 83.6Z" fill="white"/>
<path d="M146.7 75.1C146.8 75 146.9 74.8 146.9 74.6V61.3C146.9 61.1 146.8 60.9 146.7 60.8C146.6 60.7 146.4 60.6 146.2 60.6H145.2V75.4H146.2C146.4 75.3 146.6 75.2 146.7 75.1Z" fill="white"/>
<path d="M38.8 60.5H37.8V66.6H38.8C39 66.6 39.2 66.5 39.3 66.4C39.4 66.3 39.5 66.1 39.5 65.9V61.2C39.5 61 39.4 60.8 39.3 60.7C39.2 60.6 39 60.5 38.8 60.5Z" fill="white"/>
<path d="M50.2 63.2L49.6 71.4H51L50.4 63.2H50.2Z" fill="white"/>
<path d="M48.7 85.6C48.1 85.6 47.6 85.9 47.2 86.2C46.8 86.7 46.6 87.2 46.6 89.5C46.6 91.8 46.7 92.3 47.2 92.8C47.5 93.2 48.1 93.4 48.7 93.4C49.3 93.4 49.8 93.2 50.2 92.8C50.6 92.3 50.8 91.8 50.8 89.5C50.8 87.2 50.7 86.7 50.2 86.2C49.8 85.9 49.3 85.6 48.7 85.6Z" fill="white"/>
</g>
<defs>
<clipPath id="clip0">
<rect width="173.5" height="198" fill="white"/>
</clipPath>
</defs>
</svg>
